<svg width="180" height="32" viewBox="0 0 180 32" fill="none" xmlns="http://www.w3.org/2000/svg">
  <g fill="#F3F4F6">
    <path d="M34.8213 25.0066C33.0718 25.0066 31.5379 24.6063 30.2198 23.8057C28.9257 22.9816 27.9191 21.8749 27.2001 20.4857C26.4811 19.0964 26.1216 17.5659 26.1216 15.894C26.1216 14.1987 26.4811 12.6681 27.2001 11.3024C27.9191 9.91317 28.9257 8.81825 30.2198 8.01766C31.5379 7.19353 33.0718 6.78146 34.8213 6.78146C36.3072 6.78146 37.5774 7.06402 38.6319 7.62914C39.7103 8.19426 40.5851 8.95953 41.2561 9.92495V7.06402H43.9523V24.7241H41.2561V21.8985C40.5851 22.8403 39.7103 23.5938 38.6319 24.1589C37.5774 24.7241 36.3072 25.0066 34.8213 25.0066ZM35.1808 22.6049C36.5229 22.6049 37.6493 22.2987 38.56 21.6865C39.4946 21.0743 40.2016 20.262 40.6809 19.2494C41.1603 18.2134 41.3999 17.0949 41.3999 15.894C41.3999 14.6696 41.1603 13.5511 40.6809 12.5386C40.2016 11.5261 39.4946 10.7138 38.56 10.1015C37.6493 9.48933 36.5229 9.18322 35.1808 9.18322C33.8626 9.18322 32.7243 9.48933 31.7656 10.1015C30.807 10.7138 30.076 11.5261 29.5727 12.5386C29.0695 13.5511 28.8178 14.6696 28.8178 15.894C28.8178 17.0949 29.0695 18.2134 29.5727 19.2494C30.076 20.262 30.807 21.0743 31.7656 21.6865C32.7243 22.2987 33.8626 22.6049 35.1808 22.6049Z" />
    <path d="M48.6158 24.7241V7.06402H51.312V9.81899C51.9591 8.9713 52.7499 8.25313 53.6846 7.66446C54.6193 7.07579 55.8176 6.78146 57.2795 6.78146C58.5257 6.78146 59.6881 7.07579 60.7665 7.66446C61.869 8.22958 62.7557 9.08904 63.4268 10.2428C64.1218 11.3731 64.4693 12.7741 64.4693 14.4459V24.7241H61.7731V14.5166C61.7731 12.9154 61.3058 11.6321 60.3711 10.6667C59.4364 9.6777 58.2261 9.18322 56.7403 9.18322C55.7337 9.18322 54.823 9.40692 54.0081 9.8543C53.1933 10.3017 52.5342 10.9375 52.031 11.7616C51.5516 12.5622 51.312 13.4923 51.312 14.5519V24.7241H48.6158Z" />
    <path d="M77.2098 32C74.957 32 73.1236 31.5173 71.7096 30.5519C70.2956 29.61 69.337 28.3738 68.8337 26.8433H71.8174C72.1769 27.7145 72.8001 28.3856 73.6868 28.8565C74.5735 29.351 75.6999 29.5982 77.066 29.5982C79.1271 29.5982 80.6249 29.1155 81.5596 28.1501C82.5182 27.2082 82.9976 25.8308 82.9976 24.0177V21.5806C82.3265 22.5224 81.4518 23.2877 80.3733 23.8764C79.3188 24.4415 78.0486 24.7241 76.5627 24.7241C74.8132 24.7241 73.2794 24.3355 71.9612 23.5585C70.6671 22.7579 69.6605 21.6748 68.9415 20.3091C68.2226 18.9433 67.8631 17.4246 67.8631 15.7528C67.8631 14.0574 68.2226 12.5386 68.9415 11.1965C69.6605 9.83076 70.6671 8.75938 71.9612 7.98234C73.2794 7.18175 74.8132 6.78146 76.5627 6.78146C78.0486 6.78146 79.3188 7.06402 80.3733 7.62914C81.4518 8.17071 82.3265 8.92421 82.9976 9.88963V7.06402H85.6937V24.1943C85.6937 26.7138 84.9508 28.6446 83.4649 29.9868C82.003 31.3289 79.9179 32 77.2098 32ZM76.9222 22.3223C78.2403 22.3223 79.3547 22.028 80.2654 21.4393C81.2001 20.8506 81.9071 20.0618 82.3864 19.0728C82.8897 18.0603 83.1413 16.9536 83.1413 15.7528C83.1413 14.5283 82.8897 13.4216 82.3864 12.4327C81.9071 11.4437 81.2001 10.6549 80.2654 10.0662C79.3547 9.47756 78.2403 9.18322 76.9222 9.18322C75.6041 9.18322 74.4657 9.47756 73.507 10.0662C72.5484 10.6549 71.8174 11.4437 71.3142 12.4327C70.8109 13.4216 70.5592 14.5283 70.5592 15.7528C70.5592 16.9536 70.8109 18.0603 71.3142 19.0728C71.8174 20.0618 72.5484 20.8506 73.507 21.4393C74.4657 22.028 75.6041 22.3223 76.9222 22.3223Z" />
    <path d="M98.1581 25.0066C96.3367 25.0066 94.755 24.6063 93.4129 23.8057C92.0708 22.9816 91.0403 21.8749 90.3213 20.4857C89.6023 19.0964 89.2428 17.5659 89.2428 15.894C89.2428 14.1987 89.6023 12.6681 90.3213 11.3024C91.0403 9.91317 92.0708 8.81825 93.4129 8.01766C94.755 7.19353 96.3367 6.78146 98.1581 6.78146C100.004 6.78146 101.585 7.19353 102.903 8.01766C104.245 8.81825 105.276 9.91317 105.995 11.3024C106.714 12.6681 107.073 14.1987 107.073 15.894C107.073 17.5659 106.714 19.0964 105.995 20.4857C105.276 21.8749 104.245 22.9816 102.903 23.8057C101.585 24.6063 100.004 25.0066 98.1581 25.0066ZM98.1581 22.6049C99.5002 22.6049 100.627 22.2987 101.537 21.6865C102.472 21.0743 103.179 20.262 103.658 19.2494C104.138 18.2134 104.377 17.0949 104.377 15.894C104.377 14.6696 104.138 13.5511 103.658 12.5386C103.179 11.5261 102.472 10.7138 101.537 10.1015C100.627 9.48933 99.5002 9.18322 98.1581 9.18322C96.84 9.18322 95.7136 9.48933 94.779 10.1015C93.8443 10.7138 93.1373 11.5261 92.658 12.5386C92.1787 13.5511 91.939 14.6696 91.939 15.894C91.939 17.0949 92.1787 18.2134 92.658 19.2494C93.1373 20.262 93.8443 21.0743 94.779 21.6865C95.7136 22.2987 96.84 22.6049 98.1581 22.6049Z" />
    <path d="M110.649 24.7241V7.06402H113.345V11.4084C113.441 11.1023 113.62 10.702 113.884 10.2075C114.172 9.68948 114.579 9.17145 115.106 8.65342C115.634 8.13539 116.293 7.69978 117.084 7.34658C117.898 6.96983 118.857 6.78146 119.959 6.78146H120.139V9.43046H119.816C118.474 9.43046 117.311 9.79544 116.329 10.5254C115.37 11.2318 114.627 12.1619 114.1 13.3157C113.597 14.4459 113.345 15.6586 113.345 16.9536V24.7241H110.649Z" />
    <path d="M130.17 25.0066C128.421 25.0066 126.887 24.6063 125.569 23.8057C124.274 22.9816 123.268 21.8749 122.549 20.4857C121.83 19.0964 121.47 17.5659 121.47 15.894C121.47 14.1987 121.83 12.6681 122.549 11.3024C123.268 9.91317 124.274 8.81825 125.569 8.01766C126.887 7.19353 128.421 6.78146 130.17 6.78146C131.656 6.78146 132.926 7.06402 133.981 7.62914C135.059 8.19426 135.934 8.95953 136.605 9.92495V7.06402H139.301V24.7241H136.605V21.8985C135.934 22.8403 135.059 23.5938 133.981 24.1589C132.926 24.7241 131.656 25.0066 130.17 25.0066ZM130.53 22.6049C131.872 22.6049 132.998 22.2987 133.909 21.6865C134.843 21.0743 135.55 20.262 136.03 19.2494C136.509 18.2134 136.749 17.0949 136.749 15.894C136.749 14.6696 136.509 13.5511 136.03 12.5386C135.55 11.5261 134.843 10.7138 133.909 10.1015C132.998 9.48933 131.872 9.18322 130.53 9.18322C129.211 9.18322 128.073 9.48933 127.114 10.1015C126.156 10.7138 125.425 11.5261 124.922 12.5386C124.418 13.5511 124.167 14.6696 124.167 15.894C124.167 17.0949 124.418 18.2134 124.922 19.2494C125.425 20.262 126.156 21.0743 127.114 21.6865C128.073 22.2987 129.211 22.6049 130.53 22.6049Z" />
    <path d="M143.965 24.7241V7.06402H146.661V9.81899C147.308 8.9713 148.099 8.25313 149.033 7.66446C149.968 7.07579 151.166 6.78146 152.628 6.78146C153.875 6.78146 155.037 7.07579 156.115 7.66446C157.218 8.22958 158.105 9.08904 158.776 10.2428C159.471 11.3731 159.818 12.7741 159.818 14.4459V24.7241H157.122V14.5166C157.122 12.9154 156.655 11.6321 155.72 10.6667C154.785 9.6777 153.575 9.18322 152.089 9.18322C151.082 9.18322 150.172 9.40692 149.357 9.8543C148.542 10.3017 147.883 10.9375 147.38 11.7616C146.9 12.5622 146.661 13.4923 146.661 14.5519V24.7241H143.965Z" />
    <path d="M164.326 24.7241V0H167.022V15.8234L175.686 7.06402H179.461L172.235 14.0221L180 24.7241H176.693L170.402 15.8587L167.022 19.1435V24.7241H164.326Z" />
  </g>
  <g fill="#DC2626">
    <rect x="16.0965" y="6.5896" width="5.3655" height="2.63583" />
    <rect x="10.731" y="11.8612" width="10.731" height="2.63583" />
    <rect x="5.36548" y="17.1328" width="16.0965" height="2.63583" />
    <rect y="22.4045" width="21.462" height="2.63583" />
  </g>
</svg>
